<svg version="1.2" xmlns="http://www.w3.org/2000/svg" viewBox="0 0 5556 1478" width="5556" height="1478"><defs><clipPath clipPathUnits="userSpaceOnUse" id="cp1"><path d="m5365.24-247.26v2033.64h-5280.05v-2033.64z"/></clipPath><clipPath clipPathUnits="userSpaceOnUse" id="cp2"><path d="m1689.02 814.01v543.33h-1174.16v-543.33z"/></clipPath><clipPath clipPathUnits="userSpaceOnUse" id="cp3"><path d="m2080.98 180.3v1176.39h-1957.71v-1176.39z"/></clipPath><clipPath clipPathUnits="userSpaceOnUse" id="cp4"><path d="m1980.79 84.92v678.35h-678.28v-678.35z"/></clipPath><clipPath clipPathUnits="userSpaceOnUse" id="cp5"><path d="m1641.65 763.27c-187.55 0-339.14-151.61-339.14-339.18 0-187.56 151.59-339.17 339.14-339.17 187.55 0 339.14 151.61 339.14 339.17 0 187.57-151.59 339.18-339.14 339.18z"/></clipPath><clipPath clipPathUnits="userSpaceOnUse" id="cp6"><path d="m1981.64 84.27v679.73h-679.68v-679.73z"/></clipPath><clipPath clipPathUnits="userSpaceOnUse" id="cp7"><path d="m1980.79 84.92v678.35h-678.28v-678.35z"/></clipPath><clipPath clipPathUnits="userSpaceOnUse" id="cp8"><path d="m1641.65 763.27c-187.55 0-339.14-151.61-339.14-339.18 0-187.56 151.59-339.17 339.14-339.17 187.55 0 339.14 151.61 339.14 339.17 0 187.57-151.59 339.18-339.14 339.18z"/></clipPath><clipPath clipPathUnits="userSpaceOnUse" id="cp9"><path d="m1701.99 180.58v490.82h-122.23v-490.82z"/></clipPath></defs><style>.a{fill:#133380}.b{fill:#faaf32}.c{fill:none;stroke:#fff;stroke-width:75}.d{fill:#fff}.e{fill:#242b4e}</style><g clip-path="url(#cp1)"><g clip-path="url(#cp2)"><path class="a" d="m1684.3 1123.6q-2.6-14.1-4.6-28.3c-5.3-38-7.7-76.2-12.4-114.2l-1.9 0.2-21.9-165.7c-44.5 12.9-88.7 26.7-132.9 40.3l-134.8 41.6-134.8 41.6c-22.4 6.9-44.9 14.3-68.1 18.5q-34.9 6.8-70.4 6.8-35.5 0-70.3-6.8c-11.6-2.2-23.1-5-34.4-8.1l-33.8-10.3-134.7-41.7-268.3-83c-8.5 37-11.5 74.7-16.2 112.4l-13.6 114c-2.3 19-4.8 38-7.5 57l-4.1 28.4c-1.5 9.5-2.9 18.9-3.1 28.5-0.5 18.9 4 38.4 15.7 53.5q8.7 11.4 21 18.9l24.3 15.2c32.5 20.1 66 39.2 102 52 8.9 3.3 18.2 5.8 27.4 8.4l27.6 7.8c18.5 4.9 37.1 9.3 55.7 13.7q112.4 24.9 227.2 31.5c152.9 8.1 306.9-7.9 455.3-45.5 36.7-10.8 72.2-25.5 106.8-41.8 17.2-8.1 34.4-16.7 51.5-25.4 17-8.5 32.9-20.3 43.3-36.5 10.6-16 15.1-35.6 14.1-54.6-0.5-9.6-2.2-19-4.1-28.4z"/></g><g clip-path="url(#cp3)"><path class="a" d="m2053.5 467.4c-12.1-9.6-26.5-15.9-41.3-20.5l-0.5 1.9-476.1-147.2-238-73.6-118.9-36.7q-29.9-8.8-60.9-10.6-31.1-1.7-61.7 3.5c-20.4 3.3-40.1 9.8-59.9 15.9l-59.5 18.4-119.1 36.7-238 73.4-238.1 73.5-119.1 36.7c-19.7 6.4-40.2 11-58.1 21.1q-13.7 7.4-24.3 18.7-10.3 11.4-16.4 25.6v38.1c14.5 10.6 27.9 22.3 42.1 33q10.7 8.1 22.4 14.9c7.7 4.4 16 7.8 24.4 11.1 33.5 13.3 68.6 21.5 103.2 32.1q0.4 0.1 0.7 0.5 0.2 0.5 0 0.9l-34.8 102.3c-6.1 16.8-10.1 34.8-21 49.8-5.2 7.6-12.2 13.5-17.3 20.8q-8.2 10.6-13.6 22.9-5.5 12.3-6.9 25.7-1.4 13.3 1.4 26.5c3.6 17.5 12.3 33.5 23 47.9q7.4 11.8 9.5 25.6 1.1 6.8 0.3 13.7c-0.7 4.6-1.8 8.9-2.7 13.3l-11.4 52.8-45.7 211.2-5.7 26.4q-3.1 13-4.7 26.4c-0.8 8.8-0.8 17.9 1.8 26.4q0.9 3.1 2.4 6.1 1.5 2.9 3.6 5.5 2.1 2.5 4.7 4.6 2.5 2.1 5.5 3.6c15.7 8.5 34.4 8.6 52.2 8.7h108c18 0.1 36.1 0.3 53.5-3.8 8.6-2.2 17-5.9 22.9-12.5 5.8-6.6 8.2-15.6 8.6-24.4 0.8-17.9-3.5-35.6-7.4-53.1l-46.8-210.8-11.7-52.7c-1.9-8.9-4.2-17.5-5.7-26.5-1.5-8.9-1.4-18.3 1.6-27 3.1-8.7 8.8-16 14.7-22.8q8.8-10.2 14.2-22.5 2.8-6.2 4.5-12.6 1.7-6.5 2.4-13.2 0.6-6.7 0.2-13.4-0.4-6.7-1.9-13.2-3.2-13.1-10.2-24.7c-4.5-7.7-10.5-14.4-16.9-20.7-6.5-6.2-12.2-13.6-15.4-22.2-3.2-8.6-3-18.2-0.6-26.9 2.5-8.8 6.8-16.9 11.2-24.7 4.5-7.8 8.7-15.8 13.6-23.4 4.8-7.6 10.4-14.9 17.7-20.4q5.5-4.2 12-6.5 6.5-2.4 13.4-2.6c9.1-0.4 18.1 1.6 26.7 4.3l25.8 8 51.5 16.1 103.2 32.1 206.2 64.1 103.1 32 51.7 16c17.1 5.6 34.4 10.5 52.2 13.3q26.7 4.4 53.7 3.3 27.1-1.1 53.3-7.6c17.5-4.4 34.5-10.2 51.7-15.4l51.6-16 412.6-127.8 206.4-63.9 103.1-32c8.6-2.8 17.4-4.8 25.4-9.1q12-6.2 22.6-14.6c14.2-11.1 27.1-23.7 41.6-34.3v-39q-4.5-10.7-11.6-20-7-9.3-16.2-16.5z"/></g><g clip-path="url(#cp4)"><g clip-path="url(#cp5)"><g clip-path="url(#cp6)"><g clip-path="url(#cp7)"><g clip-path="url(#cp8)"><path fill-rule="evenodd" class="b" d="m1980.8 84.9v678.4h-678.3v-678.4z"/></g></g></g><path fill-rule="evenodd" class="c" d="m1641.6 763.3c-187.5 0-339.1-151.6-339.1-339.2 0-187.6 151.6-339.2 339.1-339.2 187.6 0 339.2 151.6 339.2 339.2 0 187.6-151.6 339.2-339.2 339.2z"/></g></g><g clip-path="url(#cp9)"><path class="d" d="m1598.8 361.4v-73.7h85.7v73.7l-16 103.7h-53.7zm40.8 128.2q18.4 0 29.8 11.4 11.5 11.4 11.5 29.4 0 18.5-11.5 29.9-11.4 11.4-29.8 11.4-18 0-29.4-11.4-11.4-11.4-11.4-29.9 0-18 11.4-29.4 11.4-11.4 29.4-11.4z"/></g><path class="e" d="m2195.6 785.4v424.9h-80.7l-211.8-258v258h-97.1v-424.9h81.3l211.2 258v-258z"/><path class="e" d="m2419.6 1215.1q-51.6 0-92.6-21.5-41-21.6-64-59.8-23.1-38.3-23.1-86.8 0-48.5 23.1-86.8 23-38.2 64-59.8 41-21.5 92.6-21.5 51.5 0 92.2 21.5 40.7 21.6 63.7 59.8 23.1 38.3 23.1 86.8 0 48.5-23.1 86.8-23 38.2-63.7 59.8-40.7 21.5-92.2 21.5zm0-77.7q36.4 0 59.7-24.5 23.4-24.6 23.4-65.9 0-41.3-23.4-65.9-23.3-24.5-59.7-24.5-36.5 0-60.2 24.5-23.6 24.6-23.6 65.9 0 41.3 23.6 65.9 23.7 24.5 60.2 24.5z"/><path class="e" d="m2846.8 1194.5q-14 10.3-34.3 15.5-20.3 5.1-42.8 5.1-58.2 0-90.1-29.7-31.9-29.7-31.9-87.4v-134.2h-50.3v-72.8h50.3v-79.5h94.7v79.5h81.3v72.8h-81.3v133q0 20.6 10.6 31.8 10.6 11.3 30.1 11.3 22.4 0 38.2-12.2z"/><path class="e" d="m2874.7 883.7h94.7v326.6h-94.7zm47.3-45.6q-26.1 0-42.5-15.1-16.4-15.2-16.4-37.6 0-22.5 16.4-37.7 16.4-15.2 42.5-15.2 26.1 0 42.5 14.6 16.4 14.6 16.4 36.4 0 23.7-16.4 39.2-16.4 15.4-42.5 15.4z"/><path class="e" d="m3135.6 891h83.8v72.8h-81.3v246.5h-94.7v-246.5h-50.4v-72.8h50.4v-14.6q0-55.8 33.1-88.5 33-32.8 93.1-32.8 21.3 0 40.4 4.5 19.1 4.6 31.8 13.1l-24.8 68.6q-16.4-11.6-38.3-11.6-43.1 0-43.1 47.4z"/><path class="e" d="m3289.8 883.7h94.7v326.6h-94.7zm47.3-45.6q-26.1 0-42.5-15.1-16.4-15.2-16.4-37.6 0-22.5 16.4-37.7 16.4-15.2 42.5-15.2 26.1 0 42.5 14.6 16.4 14.6 16.4 36.4 0 23.7-16.4 39.2-16.4 15.4-42.5 15.4z"/><path class="e" d="m3604.8 1215.1q-52.2 0-93.8-21.5-41.6-21.6-65-59.8-23.3-38.3-23.3-86.8 0-48.5 23.3-86.8 23.4-38.2 65-59.8 41.6-21.5 93.8-21.5 51.5 0 90.1 21.5 38.5 21.6 56.1 61.6l-73.4 39.5q-25.5-44.9-73.5-44.9-37 0-61.3 24.3-24.2 24.2-24.2 66.1 0 41.9 24.2 66.2 24.3 24.2 61.3 24.2 48.6 0 73.5-44.9l73.4 40.1q-17.6 38.8-56.1 60.7-38.6 21.8-90.1 21.8z"/><path class="e" d="m3911.8 878.9q75.9 0 116.5 36.1 40.7 36.1 40.7 108.9v186.4h-88.6v-40.7q-26.7 45.5-99.5 45.5-37.7 0-65.3-12.7-27.6-12.8-42.2-35.2-14.5-22.5-14.5-51 0-45.5 34.3-71.6 34.3-26.1 105.9-26.1h75.2q0-31-18.8-47.7-18.8-16.7-56.4-16.7-26.1 0-51.3 8.2-25.2 8.2-42.8 22.2l-34-66.2q26.7-18.8 64.1-29.1 37.3-10.3 76.7-10.3zm-7.3 272.5q24.3 0 43.1-11.2 18.8-11.3 26.7-33.1v-33.4h-64.9q-58.3 0-58.3 38.3 0 18.2 14.3 28.8 14.2 10.6 39.1 10.6z"/><path class="e" d="m4615.2 1117.4v92.9h-341.1v-424.9h333.2v92.9h-214.2v71.6h188.7v89.8h-188.7v77.7z"/><path class="e" d="m4746.9 880.7h-130.5v-95.3h380.5v95.3h-129.9v329.6h-120.1z"/><path class="e" d="m5357.4 1117.4v92.9h-341.1v-424.9h333.2v92.9h-214.2v71.6h188.7v89.8h-188.7v77.7z"/></g></svg>